# xmcd
#
# Track frame offsets: 
#        150
#        16631
#        39501
#        59158
#        85298
#        99638
#        114242
#
# Disc length: 1890 seconds
#
# Revision: 0
# Processed by: cddbd v1.5.2PL0 Copyright (c) Steve Scherf et al.
# Submitted via: ExactAudioCopy v1.0b1
#
DISCID=50076007
DTITLE=Wreckin' So - Hillbilly Blues: Live Off The Floor
DYEAR=2014
DGENRE=Blues
TTITLE0=Last Train Out
TTITLE1=Hitchhike To Freedom
TTITLE2=Come Runnin' Back To Me
TTITLE3=More Than Best Friends
TTITLE4=One Night Stand
TTITLE5=Still Smokin'
TTITLE6=There Is A Woman (She's The One That Got Away)
EXTD=
EXTT0=
EXTT1=
EXTT2=
EXTT3=
EXTT4=
EXTT5=
EXTT6=
PLAYORDER=
